<svg width="12" height="7" viewBox="0 0 12 7" fill="none" xmlns="http://www.w3.org/2000/svg">
<path d="M6.00005 6.95027C5.86672 6.95027 5.74172 6.92944 5.62505 6.88777C5.50838 6.8461 5.40005 6.77527 5.30005 6.67527L0.700049 2.07527C0.516715 1.89194 0.425049 1.6586 0.425049 1.37527C0.425049 1.09194 0.516715 0.858602 0.700049 0.675269C0.883382 0.491935 1.11672 0.400269 1.40005 0.400269C1.68338 0.400269 1.91672 0.491935 2.10005 0.675269L6.00005 4.57527L9.90005 0.675269C10.0834 0.491935 10.3167 0.400269 10.6 0.400269C10.8834 0.400269 11.1167 0.491935 11.3 0.675269C11.4834 0.858602 11.575 1.09194 11.575 1.37527C11.575 1.6586 11.4834 1.89194 11.3 2.07527L6.70005 6.67527C6.60005 6.77527 6.49172 6.8461 6.37505 6.88777C6.25838 6.92944 6.13338 6.95027 6.00005 6.95027Z" fill="#1C1B1F"/>
</svg>
