<svg width="20" height="20" viewBox="0 0 20 20" fill="none" xmlns="http://www.w3.org/2000/svg">
<path d="M13.6051 8.29622C14.0448 7.96204 14.1304 7.33468 13.7962 6.89497C13.462 6.45526 12.8347 6.36971 12.395 6.70389L6.14497 11.4539C5.70526 11.7881 5.61971 12.4154 5.95389 12.8551C6.28807 13.2948 6.91543 13.3804 7.35514 13.0462L13.6051 8.29622Z" fill="#009846"/>
<path d="M7.5 9C8.32843 9 9 8.32843 9 7.5C9 6.67157 8.32843 6 7.5 6C6.67157 6 6 6.67157 6 7.5C6 8.32843 6.67157 9 7.5 9Z" fill="#009846"/>
<path d="M13.5 12.5C13.5 13.3284 12.8284 14 12 14C11.1716 14 10.5 13.3284 10.5 12.5C10.5 11.6716 11.1716 11 12 11C12.8284 11 13.5 11.6716 13.5 12.5Z" fill="#009846"/>
<path fill-rule="evenodd" clip-rule="evenodd" d="M10 0C8.02221 0 6.08882 0.58649 4.44433 1.6853C2.79985 2.78411 1.51809 4.3459 0.761205 6.17317C0.00432771 8.00043 -0.193699 10.0111 0.192153 11.9509C0.578007 13.8907 1.53045 15.6725 2.92897 17.0711C4.32749 18.4696 6.10933 19.422 8.04914 19.8079C9.98895 20.1937 11.9996 19.9957 13.8269 19.2388C15.6541 18.4819 17.2159 17.2002 18.3147 15.5557C19.4135 13.9112 20 11.9778 20 10C20 7.34783 18.9464 4.8043 17.0711 2.92893C15.1957 1.05357 12.6522 0 10 0ZM5.55547 3.34824C6.87107 2.46919 8.41778 2 10 2C12.1218 2 14.1566 2.84285 15.6569 4.34315C17.1572 5.84344 18 7.87827 18 10C18 11.5822 17.5308 13.129 16.6518 14.4446C15.7727 15.7602 14.5233 16.7855 13.0615 17.391C11.5997 17.9965 9.99117 18.155 8.43932 17.8463C6.88747 17.5376 5.462 16.7757 4.34318 15.6569C3.22435 14.538 2.4624 13.1126 2.15372 11.5607C1.84504 10.0089 2.00346 8.40034 2.60896 6.93853C3.21446 5.47674 4.23987 4.2273 5.55547 3.34824Z" fill="#009846"/>
</svg>
