<svg width="74" height="74" viewBox="0 0 74 74" fill="none" xmlns="http://www.w3.org/2000/svg">
<path d="M29.6 27.75C29.6 30.8152 27.1152 33.3 24.05 33.3C20.9848 33.3 18.5 30.8152 18.5 27.75C18.5 24.6848 20.9848 22.2 24.05 22.2C27.1152 22.2 29.6 24.6848 29.6 27.75Z" fill="#EB5757"/>
<path d="M49.95 33.3C53.0152 33.3 55.5 30.8152 55.5 27.75C55.5 24.6848 53.0152 22.2 49.95 22.2C46.8848 22.2 44.4 24.6848 44.4 27.75C44.4 30.8152 46.8848 33.3 49.95 33.3Z" fill="#EB5757"/>
<path d="M36.8881 46.5124C32.2957 46.5124 27.8812 48.2876 24.5673 51.467H24.5303C23.8041 52.1343 22.8427 52.4858 21.8573 52.4441C20.872 52.4025 19.9436 51.9712 19.2763 51.245C18.609 50.5188 18.2575 49.5573 18.2992 48.572C18.3408 47.5866 18.7722 46.6582 19.4983 45.9909C24.1876 41.5705 30.3885 39.1086 36.8328 39.1086C43.2772 39.1086 49.478 41.5705 54.1673 45.9909C54.828 46.6644 55.2064 47.5648 55.2253 48.508C55.2442 49.4513 54.9019 50.3661 54.2687 51.0655C53.6355 51.7648 52.7591 52.1958 51.8187 52.2705C50.8782 52.3451 49.9448 52.0577 49.2092 51.467C45.8953 48.2876 41.4806 46.5124 36.8881 46.5124Z" fill="#EB5757"/>
<path fill-rule="evenodd" clip-rule="evenodd" d="M16.4438 67.7644C22.5284 71.83 29.6821 74 37 74C46.813 74 56.224 70.1018 63.1629 63.163C70.1017 56.2241 74 46.813 74 37C74 29.6821 71.83 22.5286 67.7644 16.444C63.6988 10.3593 57.9202 5.61692 51.1593 2.81648C44.3985 0.0160419 36.9589 -0.716695 29.7816 0.710957C22.6043 2.13861 16.0117 5.66252 10.8371 10.8371C5.6626 16.0116 2.13858 22.6044 0.710928 29.7817C-0.716725 36.959 0.0161257 44.3985 2.81657 51.1593C5.61701 57.9202 10.3592 63.6988 16.4438 67.7644ZM20.5551 12.3885C25.4228 9.13602 31.1457 7.40004 37 7.40004C44.8504 7.40004 52.3793 10.5186 57.9304 16.0697C63.4815 21.6207 66.6 29.1496 66.6 37C66.6 42.8543 64.8639 48.5772 61.6114 53.4448C58.3589 58.3125 53.7361 62.1064 48.3274 64.3468C42.9187 66.5871 36.9671 67.1734 31.2253 66.0312C25.4835 64.8891 20.2093 62.07 16.0696 57.9304C11.93 53.7908 9.111 48.5166 7.96888 42.7747C6.82676 37.0329 7.41277 31.0813 9.65312 25.6726C11.8935 20.2639 15.6874 15.641 20.5551 12.3885Z" fill="#EB5757"/>
</svg>
