<svg width="62" height="61" viewBox="0 0 62 61" fill="none" xmlns="http://www.w3.org/2000/svg">
<path fill-rule="evenodd" clip-rule="evenodd" d="M31.0001 60.9167C14.0417 60.9167 0.166748 47.2292 0.166748 30.5C0.166748 13.7709 14.0417 0.083374 31.0001 0.083374C47.9584 0.083374 61.8334 13.7709 61.8334 30.5C61.8334 47.2292 47.9584 60.9167 31.0001 60.9167ZM31.0001 6.16671C17.4334 6.16671 6.33342 17.1167 6.33342 30.5C6.33342 43.8834 17.4334 54.8334 31.0001 54.8334C44.5667 54.8334 55.6668 43.8834 55.6668 30.5C55.6668 17.1167 44.5667 6.16671 31.0001 6.16671ZM30.0751 41.7542L45.4917 26.5459C46.7251 25.3292 46.7251 23.5042 45.4917 22.2875C44.2584 21.0709 42.4084 21.0709 41.1751 22.2875L27.9167 35.3667L22.3667 29.8917C21.1334 28.675 19.2834 28.675 18.0501 29.8917C16.8167 31.1084 16.8167 32.9334 18.0501 34.15L25.7584 41.7542C26.3751 42.3625 27.3001 42.6667 27.9167 42.6667C28.5334 42.6667 29.4584 42.3625 30.0751 41.7542Z" fill="#009846"/>
</svg>
